# xmcd CD database file
#
# Track frame offsets:
#	150
#	23773
#	31929
#	44134
#	66271
#	89088
#
# Disc length: 1294 seconds
#
# Revision: 0
# Processed by: cddbd v1.5.1PL2 Copyright (c) Steve Scherf et al.
# Submitted via: CDex 1.50beta8
#
DISCID=50050c06
DTITLE=山崎まさよし - Singles3
DYEAR=1900
DGENRE=JPop
TTITLE0=全部、君だった。
TTITLE1=mud skiffle track V
TTITLE2=OVER THE RAINBOW
TTITLE3=未完成
TTITLE4=Security
TTITLE5=mud skiffle track XI
EXTD=
EXTT0=
EXTT1=
EXTT2=
EXTT3=
EXTT4=
EXTT5=
PLAYORDER=
